{"title":"Breaking Pointe S02E06 Nowhere Near Ready HDTV x264-NY2","uid":8865333,"size":234559155,"categoryP":"video","categoryS":"hd___tv_shows","magnet":"?xt=urn:btih:a199054fb24143e62af5874eb4e8447bfc89fa75&amp;dn=Breaking+Pointe+S02E06+Nowhere+Near+Ready+HDTV+x264-NY2&amp;tr=udp%3A%2F%2Ftracker.openbittorrent.com%3A80&amp;tr=udp%3A%2F%2Fopen.demonii.com%3A1337&amp;tr=udp%3A%2F%2Ftracker.coppersurfer.tk%3A6969&amp;tr=udp%3A%2F%2Fexodus.desync.com%3A6969","seeders":3,"leechers":0,"uploader":"[mR12]","files":-1,"time":1377893505,"description":"Breaking.Pointe.S02E06.Nowhere.Near.Ready.HDTV.x264-NY2\nMP4 | AAC VBR | 233MB\n\nGeneral\nFormat                                   : MPEG-4\nFormat profile                           : Base Media / Version 2\nCodec ID                                 : mp42\nFile size                                : 224 MiB\nDuration                                 : 38mn 26s\nOverall bit rate mode                    : Variable\nOverall bit rate                         : 814 Kbps\nWriting application                      : HandBrake 0.9.9 2013051800\n\nVideo\nID                                       : 1\nFormat                                   : AVC\nFormat/Info                              : Advanced Video Codec\nFormat profile                           : &lt;a class=&quot;__cf_email__&quot; href=&quot;/cdn-cgi/l/email-protection&quot; data-cfemail=&quot;367e5f515e767a051806&quot;&gt;[email&amp;#160;protected]&lt;/a&gt;&lt;script cf-hash='f9e31' type=&quot;text/javascript&quot;&gt;\n/* &lt;![CDATA[ */!function(){try{var t=&quot;currentScript&quot;in document?document.currentScript:function(){for(var t=document.getElementsByTagName(&quot;script&quot;),e=t.length;e--;)if(t[e].getAttribute(&quot;cf-hash&quot;))return t[e]}();if(t&amp;&amp;t.previousSibling){var e,r,n,i,c=t.previousSibling,a=c.getAttribute(&quot;data-cfemail&quot;);if(a){for(e=&quot;&quot;,r=parseInt(a.substr(0,2),16),n=2;a.length-n;n+=2)i=parseInt(a.substr(n,2),16)^r,e+=String.fromCharCode(i);e=document.createTextNode(e),c.parentNode.replaceChild(e,c)}}}catch(u){}}();/* ]]&gt; */&lt;/script&gt;\nFormat settings, CABAC                   : No\nFormat settings, ReFrames                : 4 frames\nCodec ID                                 : avc1\nCodec ID/Info                            : Advanced Video Coding\nDuration                                 : 38mn 26s\nBit rate mode                            : Variable\nBit rate                                 : 655 Kbps\nWidth                                    : 624 pixels\nHeight                                   : 350 pixels\nDisplay aspect ratio                     : 16:9\nOriginal display aspect ratio            : 16:9\nFrame rate mode                          : Constant\nFrame rate                               : 29.970 fps\nColor space                              : YUV\nChroma subsampling                       : 4:2:0\nBit depth                                : 8 bits\nScan type                                : Progressive\nBits/(Pixel*Frame)                       : 0.100\nStream size                              : 180 MiB (81%)\nWriting library                          : x264 core 130 r2273 b3065e6\nEncoded date                             : UTC 2013-08-27 19:14:31\nTagged date                              : UTC 2013-08-27 19:25:24\nColor primaries                          : BT.709\nTransfer characteristics                 : BT.709\nMatrix coefficients                      : BT.709\n\nAudio\nID                                       : 2\nFormat                                   : AAC\nFormat/Info                              : Advanced Audio Codec\nFormat profile                           : LC\nCodec ID                                 : 40\nDuration                                 : 38mn 26s\nBit rate mode                            : Variable\nBit rate                                 : 154 Kbps\nMaximum bit rate                         : 163 Kbps\nChannel(s)                               : 2 channels\nChannel positions                        : Front: L R\nSampling rate                            : 48.0 KHz\nCompression mode                         : Lossy\nDelay relative to video                  : 67ms\nStream size                              : 42.2 MiB (19%)\nLanguage                                 : English\nEncoded date                             : UTC 2013-08-27 19:14:31\nTagged date                              : UTC 2013-08-27 19:25:24\n\nUploaded by [mR12]\n","torrent":{"xt":"urn:btih:a199054fb24143e62af5874eb4e8447bfc89fa75","amp;dn":"Breaking+Pointe+S02E06+Nowhere+Near+Ready+HDTV+x264-NY2","amp;tr":["udp%3A%2F%2Ftracker.openbittorrent.com%3A80","udp%3A%2F%2Fopen.demonii.com%3A1337","udp%3A%2F%2Ftracker.coppersurfer.tk%3A6969","udp%3A%2F%2Fexodus.desync.com%3A6969"],"infoHash":"a199054fb24143e62af5874eb4e8447bfc89fa75","infoHashBuffer":{"type":"Buffer","data":[161,153,5,79,178,65,67,230,42,245,135,78,180,232,68,123,252,137,250,117]},"announce":[],"urlList":[]}}